# xmcd CD database file
#
# Track frame offsets:
#	150
#	11655
#	40292
#	46068
#	64171
#	77328
#	94306
#	105558
#	132730
#	150865
#	166888
#	187837
#	202784
#
# Disc length: 2908 seconds
#
# Revision: 0
# Processed by: cddbd v1.5.2PL0 Copyright (c) Steve Scherf et al.
# Submitted via: CDex 1.51
#
DISCID=960b5a0d
DTITLE=Moreland and Arbuckle - Flood
DYEAR=2010
DGENRE=Blues
TTITLE0=Hate To See You Go
TTITLE1=Legend Of John Henry
TTITLE2=Before The Flood
TTITLE3=18 Counties
TTITLE4=Your Man Won't Ever Know
TTITLE5=Don't Wake Me
TTITLE6=Bound And Determined
TTITLE7=Can't Get Clear
TTITLE8=Can't Leave Well Enough Alone
TTITLE9=In The Morning I'll Be Gone
TTITLE10=What You Gonna Do
TTITLE11=Red Moon Rising
TTITLE12=Can't Get Clear - Banjo Version
EXTD=YEAR: 2010
EXTT0=
EXTT1=
EXTT2=
EXTT3=
EXTT4=
EXTT5=
EXTT6=
EXTT7=
EXTT8=
EXTT9=
EXTT10=
EXTT11=
EXTT12=
PLAYORDER=
